<svg height="153" viewBox="0 0 370 153" width="370" xmlns="http://www.w3.org/2000/svg"><g fill="none" transform="translate(-1)"><path d="m120.86 11.43c7.14-2.43 7.73-11.43.65-11.43-1.95 0-4.28 1.37-5.88 4.17l-9.63 16.56c-.397244.7054827-.855672 1.3747197-1.37 2-2.46-3.39-1.74-8.45 1.71-10.67l-1.34-1.79c-7.46 4.75-5.27 18.48 7.18 18.48 10.6-.01 15.52-12.75 8.68-17.32zm-8.79 14.57c-1.788126.0455384-3.556939-.378563-5.13-1.23.663186-.7919604 1.258616-1.6382741 1.78-2.53l6-10.37 1 .1c8.28 1.75 4.97 14.03-3.65 14.03zm3.83-16.21 2.87-4.93c2.6-4.48 5.92-1.85 4.14 1.5-1.37 2.57-3.39 3.36-7.01 3.43z" fill="#fff"/><path d="m260.21 19-.24.27c-1.718608 2.1798018-3.952296 3.8980236-6.5 5 .58-.92 1-1.92 1.47-2.67l3.93-6.74c3.32-5.64-2.05-7.53-5.68-4.28l.72-1.23h-3.56l-5.56 9.65-.24.27c-1.359787 1.5679584-3.297622 2.517028-5.37 2.63l3.35-5.78c2.16-3.73.17-7.25-3.18-7.25-2.74 0-4.86 1.09-6.91 4.65l-1.75 3-1.46 2.48-.19.22c-2.57 3-5.06 5.34-6.64 5.34-.79 0-1.23-.55-.41-2l5.13-9c1.54-2.7.07-4.65-1.92-4.65-1.54 0-3.18.85-5 2.7l5.68-9.89h-3.56l-9.87 17.28-.2.23c-1.242481 1.4691983-2.671186 2.7701595-4.25 3.87 1.13-3.39.89-8.59 3.08-13.14l-2.67-1.44c-1.47 2-4.69 6.67-7.9 10.43l-.24.27c-2.57 3-5.06 5.34-6.64 5.34-.79 0-1.23-.55-.41-2l3.56-6.23c1.23-2.16.65-3.42-.51-4.82l-2-2.39c-.259898-.27396608-.397142-.64188442-.380166-1.01913246s.186712-.73135231.470166-.98086754l.11-.09-1.85-2c-2 1.81-2.19 3.83-.92 5.47l.3.41c-1.57 2.22-3.69 5.23-6 8l-.24.27c-2.57 3-5.85 5.34-8.35 5.34-2.19 0-3.49-1.37-1.85-4.24l.34-.62c2.29 1 6.6.51 9.27-4.1l.51-.89c1.92-3.28.07-5.75-2.84-5.75-2.817108.01443731-5.390537 1.6001629-6.67 4.11l-3.47 5.97-.21.24c-1.354724 1.574525-3.295538 2.5250542-5.37 2.63l3.35-5.78c.783728-1.2288486 1.244628-2.6356264 1.34-4.09.049256-.7943693-.219165-1.5757555-.746181-2.17216439-.527015-.59640886-1.269427-.95895457-2.063819-1.00783561h-.41c-.838776.0211419-1.651331.29664341-2.33.79l4.52-7.83h-3.63l-9.97 17.22-.19.21c-2.57 3-5.06 5.34-6.64 5.34-.79 0-1.23-.55-.41-2l3.56-6.23c1.23-2.16.65-3.42-.51-4.82l-2-2.39c-.258677-.27528213-.394175-.64398832-.375311-1.02126555.018864-.37727724.190465-.73062847.475311-.97873445l.11-.09-1.85-2c-2 1.81-2.19 3.83-.92 5.47l.31.41c-1.57 2.22-3.7 5.23-6 8l-.24.27c-2.57 3-5.06 5.34-6.64 5.34-.79 0-1.23-.55-.41-2l5.75-10.06h-2c-.132978-1.9685811-1.78727-3.48648192-3.76-3.45-1.92 0-4.58 1.51-6.09 4.11l-5 8.62c-1.51 2.64-.44 5.06 2.43 5.06 1.44 0 3.22-.92 4.93-2.33.17 1.37 1.27 2.33 3.08 2.33 2.94 0 6.33-3.15 9.27-6.57 1.71-2 3-3.76 5.88-7.63l.48.58c.484299.5558751.568276 1.3556544.21 2l-3.76 6.53c-1.5 2.64-.44 5.06 2.43 5.06 2.06 0 4.34-1.55 6.54-3.65 0 2.43 1.81 3.8 4.11 3.8 2.398818-.1266639 4.608441-1.341956 6-3.3.263047.0173549.526953.0173549.79 0 1.662444-.0837161 3.280772-.5637288 4.72-1.4-.19 2.57 1.68 4.52 4.82 4.52 4 0 8-3.15 11-6.57 1.71-2 3-3.76 5.88-7.63l.48.58c.484299.5558751.568276 1.3556544.21 2l-3.76 6.53c-1.51 2.64-.44 5.06 2.43 5.06s6.33-3.15 9.27-6.57c2-2.33 3.8-4.82 5.06-6.5-1.4 3.7-.65 10.33-4 10.33-.762865-.0755514-1.415423-.5805071-1.68-1.3l-2.17 1.16c.470299 1.7500112 2.089305 2.9414334 3.9 2.87.334323-.0059564.668108-.0293213 1-.07h.1c1.986436-.3358512 3.862713-1.14536 5.47-2.36l-1.22 2.12h3.59l5.4-9.41c5.48-6.88 7.9-6 6.36-3.35l-4.62 8c-1.51 2.63-.44 5.06 2.43 5.06 2.07 0 4.35-1.56 6.55-3.67 0 4.54 6.29 5.42 10.15.55h.79c1.320387-.0532529 2.616365-.3729956 3.81-.94l-6.48 11.24h3.59l10.64-18.51c4-5.41 6.47-3.42 5.54-1.81l-5.37 9.31c-.198834.5378385-.711585.8949474-1.285.8949474s-1.086166-.3571089-1.285-.8949474l-2 1c.470299 1.7500112 2.089305 2.9414334 3.9 2.87h.21c5.17-.1 8.55-3.18 11.46-6.57-.289363-.5669307-.805311-.984776-1.42-1.15zm-81-5c2.05-3.52 5.68-2.94 3.56.75l-.51.89c-1.71 2.91-4 2.84-5.34 2.36zm-45.61 5.61c-2.16 3.39-4.28 5-5.75 5-.79 0-1.23-.55-.41-2l5-8.66c1.92-3.32 5.71-2.46 4 .75zm26.79 4.86c-.378442.0316226-.752353-.1000391-1.027489-.3618003-.275135-.2617611-.425251-.6286522-.412511-1.0081997.050793-.6583899.263796-1.2939638.62-1.85l1.25-2.25c.185326 1.4985778 1.009305 2.8439243 2.26 3.69-.543719 1.0031035-1.561876 1.6592495-2.7 1.74zm3.71-3.47c-.999996-.7615131-1.563999-1.9642221-1.51-3.22 0-2.53 2.46-6.67 4.48-6.67.390676.0023075.761492.1725145 1.017944.4672434.256453.2947289.373771.6855118.322056 1.0727566-.038011.7538569-.272426 1.4846821-.68 2.12zm73.08-1.78h-.18c-.556957.0026459-1.09005.2264368-1.482002.6221399-.391953.3957031-.610656.9309036-.607998 1.4878601.002682.4233936.120189.8381264.34 1.2v.07c-1.68 2.87-5.75 2.33-3.63-1.37l2.7-4.69 1.68-2.92c2.5-4.24 5.92-2.57 3.76 1.13zm-236.184 54.037 5.714-5.713 5.712 5.715-5.714 5.712zm352.023.026 5.714-5.713 5.713 5.715-5.715 5.712z" fill="#fff"/><g fill="#636466"><path d="m47.8 73.48h2.08v-8.32h3.27v-2.09h-5.35zm14.89 1.52v-12.68c-.0106566-1.7328903-1.0026336-3.3099788-2.56-4.07.3136357.6201646.4780062 1.3050414.48 2v12.68c.0102298 1.3617811-.6008816 2.6539505-1.66 3.51 1.0288066.9554527 1.6275229 2.286334 1.66 3.69v14.1c-.0381106 2.5219341-2.0878003 4.5493928-4.61 4.56h-13.51v2.08h15.64c2.5026954-.03756 4.5224398-2.0573046 4.56-4.56v-14.1c-.0391113-1.4084055-.6491508-2.740385-1.69-3.69 1.073115-.8522515 1.6960114-2.1496452 1.69-3.52z"/><path d="m47.8 91.34h2.08v-8.39h3.27v-2.08h-5.35zm33.01 0h2.08v-26.18h3.27v-2.09h-5.35z"/><path d="m93.14 58.25c.3136357.6201646.4780062 1.3050414.48 2v34c-.0375602 2.5026954-2.0573046 4.5224398-4.56 4.56h-11.06c-.6947827-.0034565-1.3793284-.1677474-2-.48.7600212 1.5573664 2.3371097 2.549343 4.07 2.56h11.08c2.5026954-.03756 4.5224398-2.0573046 4.56-4.56v-34c-.0110939-1.7380649-1.0071666-3.3193788-2.57-4.08zm20.68 15.23h2.08v-8.32h3.28v-2.09h-5.36zm12.25 9.04c1.580862-.732849 2.591782-2.3175334 2.59-4.06v-16.14c-.001097-1.7459779-.999054-3.3380493-2.57-4.1.310559.6212903.474753 1.3054348.48 2v16.15c.011802 1.7421814-.991927 3.3317444-2.57 4.07l3.08 18.35h-5.68l.35 2.08h7.39zm-9.42-1.65h-2.83v17.92h-5.31v2.09h7.39v-17.93h1.1zm29.19 10.47h2.09v-26.18h3.27v-2.09h-5.36z"/><path d="m158.18 58.25c.313986.6200361.478376 1.3049971.48 2v34c-.03756 2.5026954-2.057305 4.5224398-4.56 4.56h-11.1c-.694826-.0030934-1.379454-.167404-2-.48.760021 1.5573664 2.33711 2.549343 4.07 2.56h11.09c2.502695-.03756 4.52244-2.0573046 4.56-4.56v-34c-.005455-1.731342-.988832-3.3109404-2.54-4.08zm20.67 33.09h2.09v-26.18h3.27v-2.09h-5.36z"/><path d="m191.19 58.25c.313636.6201646.478006 1.3050414.48 2v34c-.03756 2.5026954-2.057305 4.5224398-4.56 4.56h-13.56v2.08h15.64c2.502695-.03756 4.52244-2.0573046 4.56-4.56v-34c-.00922-1.7358182-1.001056-3.3165576-2.56-4.08zm21.05-.48v41.02h-5.31v2.09h7.39v-43.11zm32.88 0v41.02h-5.9l.59 2.09h7.4v-43.11zm-12.81 22.18v18.84h-5.3v2.09h7.39v-13.69zm32.27 3.05h6.11v-2.13h-8.19c-.694739-.0038178-1.379203-.1680893-2-.48.741697 1.5850437 2.330029 2.6011094 4.08 2.61zm2.83 2.73-2.09.48v5.13h2.09zm10.25-27.48c.313636.6201646.478006 1.3050414.48 2v8.75l-5.37 1.24v2.56l7.45-1.73v-8.75c-.010657-1.7328903-1.002634-3.3099788-2.56-4.07z"/><path d="m277.66 76.05c.313636.6201646.478006 1.3050414.48 2v16.2c-.03756 2.5026954-2.057305 4.5224398-4.56 4.56h-11.09c-.694783-.0034565-1.379328-.1677474-2-.48.760021 1.5573664 2.33711 2.549343 4.07 2.56h11.08c2.502695-.03756 4.52244-2.0573046 4.56-4.56v-16.21c-.006897-1.7284082-.990411-3.3043531-2.54-4.07zm-12.34-12.98v10.41h2.09v-8.32h3.27v-2.09zm33.69 17.8h-.68v17.92h-5.3v2.09h7.39v-15.53zm15.14-23.1h-2.75l-6.23 19.41 6.9 21.61h-6.01l.58 1.84.06.25h7.45l-6.9-21.62zm17.38 0v41.02h-5.3v2.09h7.38v-43.11z"/></g><path d="m168.9 123.85h1.41c5.43.28 9.69 1.73 12.39 4.72 2.74-3 7-4.46 12.46-4.72h1.35c12.11.82 17.63 9.5 27.3 13.19 1.502611.684857 3.138889 1.02646 4.79 1 2.48-.27 4.06-2.78 3.74-5.58-.34-3-3.28-5.61-6.56-4.17-.431384.200434-.826704.470738-1.17.8-.25.23-.53.83-1.17.61-.6-.5 0-1.23.31-1.65 1.211918-2.155177 3.621804-3.346225 6.07-3 5.63.4 10.67 5.34 9.81 12.82-1.92 11.13-12.1 14.13-24.17 15.13h-3.93c-10.533771-.427213-20.638191-4.290564-28.77-11-8.196061 6.685506-18.332914 10.543824-28.9 11h-3.86c-12.16-1.07-22.44-4-24.23-15.46-.68-8.16 4.18-12.17 9.82-12.58 2.466839-.345024 4.896165.841944 6.14 3 .28.46.8 1.17.31 1.72-.61.11-.91-.37-1.17-.61-.73843-.769558-1.753611-1.21235-2.82-1.23-3.86-.14-6.08 4.15-4.54 7.61.612201 1.366065 1.886582 2.319014 3.37 2.52 1.649334.008312 3.281758-.332486 4.79-1 1.344736-.515152 2.640031-1.151085 3.87-1.9 7.35-4.26 13.1-10.31 23.36-11.22z" fill="#fff"/><path d="m362.634 82.906 5.713-5.714 2.086 2.085-5.713 5.715zm-351.967.044 5.713-5.714 2.086 2.086-5.713 5.713z" fill="#636466"/><path d="m56.65 69c.0035551 1.3496078-.60285 2.6285713-1.65 3.48 1.0288066.9554527 1.6275229 2.286334 1.66 3.69v14.1c-.0375602 2.5026954-2.0573046 4.5224398-4.56 4.56h-15.65v-43.11h15.64c2.5116095.0163628 4.5436372 2.0483905 4.56 4.56zm-7.45-9.89h-5.36v10.41h5.36zm0 17.8h-5.36v10.47h5.36zm35.9-25.19c2.5116095.0163628 4.5436372 2.0483905 4.56 4.56v34c-.0375602 2.5026954-2.0573046 4.5224398-4.56 4.56h-11.1c-2.5116095-.0163628-4.5436372-2.0483905-4.56-4.56v-34c-.0026627-1.2102015.4769094-2.3716031 1.3326531-3.2273469.8557438-.8557437 2.0171454-1.3353158 3.2273469-1.3326531zm-2.9 7.39h-5.35v28.27h5.36zm33.51 35.72-3-17.92h-2.83v17.92h-7.39v-43.11h15.64c1.201439.0079302 2.350517.4928189 3.194436 1.3479906.84392.8551716 1.313547 2.0105708 1.305564 3.2120094v16.14c-.005386 1.751761-1.033522 3.3389221-2.63 4.06l3.08 18.35zm-.49-35.72h-5.36v10.41h5.36zm34.92-7.39c2.51161.0163628 4.543637 2.0483905 4.56 4.56v34c-.03756 2.5026954-2.057305 4.5224398-4.56 4.56h-11.08c-2.51161-.0163628-4.543637-2.0483905-4.56-4.56v-34c-.00564-2.4973936 2.002751-4.5325624 4.5-4.56h11.1zm-2.9 7.39h-5.36v28.27h5.36zm35.91-7.39c2.51161.0163628 4.543637 2.0483905 4.56 4.56v34c-.03756 2.5026954-2.057305 4.5224398-4.56 4.56h-15.64v-43.12zm-2.89 7.39h-5.36v28.27h5.36zm20.63-7.39h7.39v43.11h-7.39zm40.28 0v43.11h-7.39l-5.42-18.83v18.83h-7.36v-43.11h7.33l5.42 17.67v-17.67zm28.45 17.8c2.51161.0163628 4.543637 2.0483905 4.56 4.56v16.2c-.03756 2.5026954-2.057305 4.5224398-4.56 4.56h-11.08c-2.503796-.0272236-4.523782-2.0561088-4.54-4.56v-8.87l7.39-1.72v7.7h5.36v-10.48h-8.19c-1.206736.0026551-2.365101-.4741741-3.220268-1.3255899-.855167-.8514157-1.337083-2.0076742-1.339732-3.2144101v-16.09c-.002655-1.2067359.474174-2.3651015 1.32559-3.220268s2.007674-1.3370827 3.21441-1.339732h11.1c2.51161.0163628 4.543637 2.0483905 4.56 4.56v8.72l-7.45 1.73v-7.62h-5.36v10.41zm31.6 3.7 6.9 21.62h-7.45l-.06-.25-5.54-17.67h-.68v17.91h-7.39v-43.11h7.39v17.8h.61l5.67-17.8h7.51zm18.97-21.5h7.39v43.11h-7.39z" fill="#fff"/></g></svg>