<svg height="24" viewBox="0 0 111 24" width="111" xmlns="http://www.w3.org/2000/svg"><g fill="#fff" fill-rule="nonzero"><path d="m13.93 8.17c5-1.67 5.34-7.88.45-7.88-1.7646117.18193824-3.3050766 1.27468178-4.06 2.88l-6.6 11.42c-.27407144.497337-.59200032.9692104-.95 1.41-.82901484-1.1372056-1.16575368-2.5600771-.93439446-3.9482324s1.01136778-2.62490221 2.16439446-3.4317676l-1-1.25c-5.14 3.28-3.63 12.75 5 12.75 7.26 0 10.66-8.81 5.93-11.95zm-6.06 10.06c-1.23401782.031015-2.45460065-.2620628-3.54-.85.45840699-.5477644.8698614-1.133167 1.23-1.75l4.13-7.15.66.07c5.76 1.21 3.47 9.68-2.48 9.68zm2.64-11.23 2-3.4c1.79-3.09 4.08-1.27 2.85 1-.95 1.85-2.36 2.4-4.85 2.4z"/><path d="m110.08 13.37-.17.19c-1.18842 1.5010837-2.731352 2.6831966-4.49 3.44.4-.64.71-1.32 1-1.84l2.71-4.65c2.29-3.89-1.42-5.19-3.92-2.95l.5-.85h-2.46l-3.84 6.66-.17.19c-.9387655 1.0845743-2.2777264 1.741423-3.71 1.82l2.32-4c1.49-2.57.12-5-2.2-5-1.89 0-3.35.76-4.77 3.21l-1.2 2.1-1 1.72-.13.15c-1.77 2.05-3.49 3.68-4.58 3.68-.54 0-.85-.38-.28-1.34l3.54-6.21c1.06-1.87 0-3.21-1.32-3.21-1.3460306.13501472-2.579911.80968032-3.42 1.87l3.92-6.82h-2.41l-6.87 11.87-.14.16c-.8757418 1.0139145-1.8810284 1.9082498-2.99 2.66.78-2.34.62-5.92 2.13-9.07l-1.85-1c-1 1.39-3.23 4.6-5.45 7.2l-.17.19c-1.77 2.05-3.49 3.68-4.58 3.68-.54 0-.85-.38-.28-1.34l2.46-4.3c.7489122-1.0370207.5981569-2.47134991-.35-3.33l-1.34-1.63c-.1720706-.20590364-.2541701-.47232267-.227842-.73936471.0263281-.26704203.1588744-.51229879.367842-.68063529l-1.27-1.39c-1.44 1.25-1.52 2.64-.64 3.78l.21.28c-1.09 1.53-2.55 3.61-4.15 5.5l-.17.19c-1.77 2.05-4 3.68-5.76 3.68-1.51 0-2.41-.94-1.28-2.93l.24-.42c1.58.66 4.56.35 6.4-2.83l.35-.61c1.32-2.27 0-4-2-4-1.9420498.00838789-3.7169198 1.10031882-4.6 2.83l-2.34 4.11-.15.17c-.9351374 1.0892712-2.2762326 1.7471669-3.71 1.82l2.31-4c.5362712-.8452563.8525408-1.81125366.92-2.81.0294097-.59553634-.1957296-1.17549844-.619254-1.59520732-.4235244-.41970887-1.0055002-.63959053-1.600746-.60479268-.5755279.0148567-1.1331744.20306239-1.6.54l3.12-5.41h-2.5l-6.87 11.91-.13.15c-1.77 2.05-3.49 3.68-4.58 3.68-.54 0-.85-.38-.28-1.34l2.45-4.3c.7489122-1.0370207.5981569-2.47134991-.35-3.33l-1.38-1.65c-.1720706-.20590364-.2541701-.47232267-.227842-.73936471.0263281-.26704203.1588744-.51229879.367842-.68063529l-1.27-1.39c-1.39 1.25-1.51 2.64-.6 3.78l.21.28c-1.09 1.53-2.55 3.61-4.15 5.5l-.17.19c-1.77 2.05-3.49 3.68-4.58 3.68-.54 0-.85-.38-.28-1.34l3.97-6.9h-1.43c-.0164798-1.40442522-1.1655221-2.53111254-2.57-2.52-1.7799034.19606745-3.3499307 1.25396678-4.2 2.83l-3.44 5.95c-1 1.82-.31 3.49 1.68 3.49 1.2754141-.1555317 2.4672158-.7163796 3.4-1.6.1545877 1.0251214 1.102392 1.737087 2.13 1.6 2 0 4.36-2.17 6.4-4.53 1.16-1.37 2.03-2.6 4.03-5.22l.32.4c.3364428.38687911.3925355.9437993.14 1.39l-2.6 4.51c-1 1.82-.31 3.49 1.68 3.49 1.43 0 3-1.07 4.51-2.52-.0149079.7367842.2859635 1.444777.8267327 1.9454185.5407692.5006414 1.2698149.7461407 2.0032673.6745815 1.671788-.0783678 3.2140312-.9232809 4.18-2.29.17981.011695.36019.011695.54 0 1.1510626-.0674894 2.2690818-.41044 3.26-1-.13 1.77 1.16 3.12 3.33 3.12 2.79 0 5.55-2.17 7.58-4.53 1.18-1.37 2.1-2.6 4.06-5.26l.33.4c.3364428.38687911.3925355.9437993.14 1.39l-2.6 4.51c-1 1.82-.31 3.49 1.68 3.49s4.36-2.17 6.4-4.53c1.39-1.6 2.62-3.33 3.49-4.48-1 2.55-.45 7.13-2.78 7.13-.5283486-.0499973-.9802923-.4006433-1.16-.9l-1.53.8c.3135514 1.2128102 1.4281067 2.0445679 2.68 2 .2265183.0115966.4534817.0115966.68 0h.07c1.3742893-.2460578 2.6681289-.8226229 3.77-1.68l-.84 1.47h2.48l3.74-6.53c3.78-4.74 5.46-4.13 4.39-2.31l-3.19 5.55c-1 1.81-.3 3.49 1.68 3.49 1.43 0 3-1.07 4.52-2.53 0 3.13 4.34 3.74 7 .38h.54c.9235438-.0085027 1.8355814-.205884 2.68-.58l-4.47 7.75h2.47l7.34-12.77c2.74-3.73 4.46-2.36 3.82-1.25l-3.71 6.42c-.172894.328638-.513658.534409-.885.534409s-.712106-.205771-.885-.534409l-1.39.66c.314342 1.2165901 1.434426 2.0493661 2.69 2h.14c3.56-.07 5.9-2.2 7.91-4.53-.164657-.4301309-.513188-.7639868-.95-.91zm-55.9-3.45c1.42-2.43 3.92-2 2.45.52l-.35.61c-1.18 2-2.76 2-3.68 1.63zm-31.46 3.87c-1.49 2.34-3 3.45-4 3.45-.54 0-.85-.38-.28-1.34l3.42-6c1.32-2.29 3.94-1.7 2.74.52zm18.48 3.35c-.2610556.022873-.5194766-.0666668-.7104177-.2461514s-.2962793-.4318784-.2895823-.6938486c.0367625-.452243.1844538-.8884476.43-1.27l.87-1.51c.1187954 1.0463721.6885778 1.9887045 1.56 2.58-.3888828.6685681-1.0877588 1.0969114-1.86 1.14zm2.57-2.38c-.6736829-.5339979-1.0464788-1.3616049-1-2.22 0-1.75 1.7-4.6 3.09-4.6.2627696.01180482.5085725.13316724.6777098.3346116.1691372.20144435.2461341.46454012.2122902.7253884-.0275113.51917062-.1894712 1.0222802-.47 1.46zm50.42-1.23h-.12c-.3863178.0026274-.7556147.1593099-1.0259583.4352857-.2703437.2759758-.4193793.6484245-.4140417 1.0347143.0033864.2932918.0863368.5801617.24.83-1.16 2-4 1.6-2.5-.94l1.87-3.23 1.18-2c1.72-2.93 4.08-1.77 2.6.78z"/></g></svg>